<svg width="28" height="25" viewBox="0 0 28 25" fill="none" xmlns="http://www.w3.org/2000/svg">
<path d="M13.3788 6.24475L4.58143 14.4047V23.2116C4.58143 23.4396 4.66186 23.6583 4.80504 23.8196C4.94821 23.9808 5.1424 24.0714 5.34488 24.0714L10.6919 24.0558C10.8937 24.0547 11.0869 23.9636 11.2293 23.8025C11.3716 23.6413 11.4515 23.4233 11.4515 23.196V18.0529C11.4515 17.8248 11.532 17.6061 11.6752 17.4449C11.8183 17.2837 12.0125 17.1931 12.215 17.1931H15.2688C15.4713 17.1931 15.6655 17.2837 15.8086 17.4449C15.9518 17.6061 16.0323 17.8248 16.0323 18.0529V23.1923C16.0319 23.3054 16.0515 23.4175 16.0897 23.5221C16.1279 23.6267 16.1841 23.7218 16.255 23.802C16.3259 23.8821 16.4102 23.9456 16.503 23.989C16.5958 24.0324 16.6953 24.0547 16.7957 24.0547L22.1408 24.0714C22.3433 24.0714 22.5375 23.9808 22.6807 23.8196C22.8238 23.6583 22.9043 23.4396 22.9043 23.2116V14.3988L14.1088 6.24475C14.0054 6.15088 13.8766 6.0997 13.7438 6.0997C13.611 6.0997 13.4822 6.15088 13.3788 6.24475V6.24475ZM27.275 11.7909L23.286 8.08792V0.644841C23.286 0.473819 23.2257 0.309801 23.1183 0.18887C23.0109 0.0679386 22.8653 0 22.7134 0H20.0413C19.8895 0 19.7438 0.0679386 19.6365 0.18887C19.5291 0.309801 19.4687 0.473819 19.4687 0.644841V4.54667L15.1968 0.588418C14.7868 0.208487 14.2724 0.000759486 13.7414 0.000759486C13.2105 0.000759486 12.6961 0.208487 12.2861 0.588418L0.207802 11.7909C0.149821 11.8449 0.101851 11.9112 0.0666331 11.9861C0.031415 12.0609 0.00963895 12.1428 0.00254905 12.2272C-0.00454085 12.3115 0.00319441 12.3966 0.0253128 12.4776C0.0474313 12.5585 0.0834994 12.6338 0.131456 12.6991L1.34821 14.3649C1.39603 14.4304 1.45486 14.4846 1.52132 14.5245C1.58778 14.5643 1.66057 14.589 1.73551 14.5972C1.81046 14.6053 1.8861 14.5967 1.95809 14.5719C2.03009 14.5471 2.09703 14.5065 2.15508 14.4525L13.3788 4.04154C13.4822 3.94768 13.611 3.89649 13.7438 3.89649C13.8766 3.89649 14.0054 3.94768 14.1088 4.04154L25.333 14.4525C25.391 14.5065 25.4578 14.5471 25.5297 14.572C25.6016 14.597 25.6771 14.6057 25.752 14.5977C25.8269 14.5897 25.8997 14.5652 25.9661 14.5255C26.0326 14.4858 26.0915 14.4318 26.1394 14.3665L27.3562 12.7007C27.4041 12.635 27.44 12.5594 27.4618 12.4781C27.4837 12.3967 27.4911 12.3114 27.4835 12.2268C27.476 12.1423 27.4537 12.0602 27.4179 11.9854C27.3821 11.9106 27.3336 11.8445 27.275 11.7909V11.7909Z" fill="#8500C5"/>
</svg>
