<svg width="380" height="611" viewBox="0 0 380 611" fill="none" xmlns="http://www.w3.org/2000/svg">
<g clip-path="url(#clip0_22_1839)">
<path d="M264.847 504.129L250.698 495.799V433.535L240.549 414.218V369.536H242.436V413.747L252.585 433.063V494.706L264.828 501.924L327.536 463.423L328.517 465.025L264.847 504.129Z" fill="url(#paint0_linear_22_1839)"/>
<path d="M333.535 465.044C332.342 465.648 331.024 465.963 329.687 465.963C328.349 465.963 327.031 465.648 325.838 465.044C323.707 463.819 323.688 461.821 325.838 460.615C327.031 460.011 328.349 459.696 329.687 459.696C331.024 459.696 332.342 460.011 333.535 460.615C333.99 460.78 334.384 461.081 334.662 461.477C334.94 461.873 335.089 462.346 335.089 462.829C335.089 463.313 334.94 463.785 334.662 464.181C334.384 464.577 333.99 464.879 333.535 465.044Z" fill="#FFA98C"/>
<path d="M251.642 539.934L237.493 531.605V469.34L227.344 450.024V405.342H229.23V449.553L239.379 468.869V530.512L251.623 537.73L314.331 499.229L315.312 500.831L251.642 539.934Z" fill="url(#paint1_linear_22_1839)"/>
<path d="M320.33 500.85C319.137 501.454 317.818 501.769 316.481 501.769C315.144 501.769 313.825 501.454 312.633 500.85C310.501 499.625 310.482 497.627 312.633 496.421C313.825 495.817 315.144 495.502 316.481 495.502C317.818 495.502 319.137 495.817 320.33 496.421C320.785 496.586 321.178 496.887 321.456 497.283C321.734 497.68 321.883 498.152 321.883 498.635C321.883 499.119 321.734 499.591 321.456 499.987C321.178 500.384 320.785 500.685 320.33 500.85Z" fill="#FFA98C"/>
<path d="M124.849 504.675L124.359 504.374L63.8961 467.06L64.896 465.458L124.849 502.47L152.204 486.094V447.254L172.955 413.803V369.611H174.842V414.331L154.09 447.781V487.149L124.849 504.675Z" fill="url(#paint2_linear_22_1839)"/>
<path d="M65.4242 468.002C64.2315 468.607 62.913 468.922 61.5757 468.922C60.2384 468.922 58.9199 468.607 57.7272 468.002C55.5955 466.759 55.5766 464.78 57.7272 463.555C58.9199 462.951 60.2384 462.636 61.5757 462.636C62.913 462.636 64.2315 462.951 65.4242 463.555C65.895 463.707 66.3055 464.004 66.5966 464.403C66.8878 464.803 67.0446 465.284 67.0446 465.779C67.0446 466.273 66.8878 466.754 66.5966 467.154C66.3055 467.553 65.895 467.851 65.4242 468.002Z" fill="#FFA98C"/>
<path d="M125.076 540.01L124.585 539.709L64.1414 502.395L65.1224 500.793L125.095 537.805L152.449 521.429V482.589L173.201 449.138V404.946H175.087V449.666L154.336 483.116V522.484L125.076 540.01Z" fill="url(#paint3_linear_22_1839)"/>
<path d="M65.6506 503.337C64.4579 503.942 63.1394 504.256 61.8021 504.256C60.4648 504.256 59.1464 503.942 57.9537 503.337C57.492 503.176 57.0918 502.876 56.8087 502.477C56.5256 502.079 56.3736 501.602 56.3736 501.114C56.3736 500.625 56.5256 500.149 56.8087 499.75C57.0918 499.352 57.492 499.051 57.9537 498.89C59.1464 498.286 60.4648 497.971 61.8021 497.971C63.1394 497.971 64.4579 498.286 65.6506 498.89C67.7635 500.134 67.7824 502.131 65.6506 503.337Z" fill="#FFA98C"/>
<path d="M195.499 572.951V589.648L303.445 526.762V510.065L195.499 572.951Z" fill="url(#paint4_linear_22_1839)"/>
<path d="M195.556 572.952V589.649L87.27 526.592V509.952L195.556 572.952Z" fill="url(#paint5_linear_22_1839)"/>
<path d="M87.27 509.952L195.556 572.952L303.445 510.065L195.028 446.99L87.27 509.952Z" fill="url(#paint6_linear_22_1839)"/>
<path d="M195.499 551.242V568.881L295.786 510.442V492.803L195.499 551.242Z" fill="url(#paint7_linear_22_1839)"/>
<path d="M195.537 551.242V568.881L94.9104 510.272V492.689L195.537 551.242Z" fill="url(#paint8_linear_22_1839)"/>
<path d="M195.499 538.163V564.584L303.445 501.698V475.277L195.499 538.163Z" fill="url(#paint9_linear_22_1839)"/>
<path d="M195.556 538.163V564.584L87.27 501.509V475.164L195.556 538.163Z" fill="url(#paint10_linear_22_1839)"/>
<path d="M87.27 475.164L195.556 538.163L303.445 475.277L195.028 412.202L87.27 475.164Z" fill="url(#paint11_linear_22_1839)"/>
<path d="M195.499 516.586V534.225L295.786 475.786V458.146L195.499 516.586Z" fill="url(#paint12_linear_22_1839)"/>
<path d="M195.537 516.586V534.225L94.9104 475.616V458.052L195.537 516.586Z" fill="url(#paint13_linear_22_1839)"/>
<path d="M195.499 493.802V529.928L303.445 467.041V430.915L195.499 493.802Z" fill="url(#paint14_linear_22_1839)"/>
<path d="M195.556 493.801V529.928L87.27 466.853V430.802L195.556 493.801Z" fill="url(#paint15_linear_22_1839)"/>
<path d="M87.27 430.802L195.556 493.801L303.445 430.915L195.028 367.84L87.27 430.802Z" fill="url(#paint16_linear_22_1839)"/>
<path d="M195.499 471.696V489.316L295.786 430.896V413.257L195.499 471.696Z" fill="url(#paint17_linear_22_1839)"/>
<path d="M195.537 471.696V489.316L94.9104 430.726V413.163L195.537 471.696Z" fill="url(#paint18_linear_22_1839)"/>
<path d="M195.499 436.606V484.398L303.445 421.511V373.72L195.499 436.606Z" fill="url(#paint19_linear_22_1839)"/>
<path d="M195.556 436.606V484.398L87.27 421.323V373.606L195.556 436.606Z" fill="url(#paint20_linear_22_1839)"/>
<path d="M87.27 373.606L195.556 436.606L303.445 373.72L195.028 310.645L87.27 373.606Z" fill="url(#paint21_linear_22_1839)"/>
<path d="M121.152 414.934C121.152 417.384 119.416 418.364 117.284 417.139C116.179 416.402 115.262 415.416 114.607 414.261C113.952 413.105 113.576 411.813 113.511 410.487C113.511 408.037 115.247 407.057 117.284 408.282C118.406 409.01 119.341 409.991 120.013 411.147C120.685 412.303 121.075 413.6 121.152 414.934Z" fill="#2AF6FF"/>
<path d="M243.152 432.102C243.073 433.436 242.681 434.732 242.009 435.887C241.338 437.042 240.405 438.024 239.285 438.755C237.153 439.98 235.512 439 235.512 436.55C235.574 435.223 235.948 433.929 236.604 432.774C237.259 431.618 238.178 430.633 239.285 429.897C241.417 428.673 243.152 429.652 243.152 432.102Z" fill="#2AF6FF"/>
<path d="M278.204 500.567C278.142 501.894 277.768 503.188 277.112 504.343C276.457 505.499 275.538 506.484 274.431 507.22C272.299 508.445 270.564 507.465 270.564 505.015C270.644 503.681 271.035 502.385 271.706 501.23C272.378 500.075 273.311 499.093 274.431 498.362C276.525 497.137 278.204 498.117 278.204 500.567Z" fill="#2AF6FF"/>
<path d="M246.925 606.628L207.384 582.94L207.479 542.912L238.361 478.556V434.326H240.247V478.971L240.153 479.178L209.271 543.534V581.884L247.888 605.026L246.925 606.628Z" fill="url(#paint22_linear_22_1839)"/>
<path d="M265.47 468.379C265.402 469.705 265.026 470.996 264.371 472.151C263.716 473.306 262.8 474.292 261.697 475.032C259.565 476.256 257.83 475.277 257.83 472.827C257.905 471.492 258.295 470.194 258.967 469.038C259.639 467.882 260.574 466.901 261.697 466.174C263.753 464.931 265.47 465.929 265.47 468.379Z" fill="#2AF6FF"/>
<path d="M305.483 606.439L235.682 565.526V553.861L235.833 553.635L260.678 514.757V470.603H262.565V515.323L262.414 515.549L237.568 554.427V564.452L305.464 604.253L318.028 596.678L318.99 598.279L305.483 606.439Z" fill="url(#paint23_linear_22_1839)"/>
<path d="M68.7256 549.602L68.2351 549.301L7.77243 511.968L8.77228 510.367L68.7256 547.397L96.08 531.002V492.162L116.832 458.712V414.539H118.718V459.239L97.9666 492.69V532.057L68.7256 549.602Z" fill="url(#paint24_linear_22_1839)"/>
<path d="M9.30052 512.929C8.10652 513.529 6.78854 513.842 5.45202 513.842C4.1155 513.842 2.79751 513.529 1.60352 512.929C1.14181 512.768 0.741741 512.467 0.458645 512.069C0.175549 511.671 0.0234604 511.194 0.0234604 510.705C0.0234604 510.217 0.175549 509.74 0.458645 509.342C0.741741 508.944 1.14181 508.643 1.60352 508.482C2.79751 507.882 4.1155 507.569 5.45202 507.569C6.78854 507.569 8.10652 507.882 9.30052 508.482C9.76222 508.643 10.1623 508.944 10.4454 509.342C10.7285 509.74 10.8806 510.217 10.8806 510.705C10.8806 511.194 10.7285 511.671 10.4454 512.069C10.1623 512.467 9.76222 512.768 9.30052 512.929Z" fill="#FFA98C"/>
<path d="M147.091 487.545C147.091 489.995 145.356 490.975 143.224 489.75C142.119 489.012 141.202 488.027 140.546 486.871C139.891 485.716 139.516 484.424 139.451 483.097C139.451 480.648 141.187 479.668 143.224 480.893C144.346 481.621 145.28 482.602 145.952 483.758C146.624 484.913 147.014 486.211 147.091 487.545Z" fill="#2AF6FF"/>
<path d="M81.4596 584.296L57.8782 572.763L58.7271 571.067L81.3652 582.148L131.924 552.203V527.007L142.771 510.517V487.093H144.658V511.083L133.81 527.572V553.258L133.357 553.541L81.4596 584.296Z" fill="url(#paint25_linear_22_1839)"/>
<path d="M58.8591 574.233C57.6665 574.837 56.348 575.152 55.0106 575.152C53.6733 575.152 52.3549 574.837 51.1622 574.233C50.7005 574.072 50.3004 573.771 50.0173 573.373C49.7342 572.974 49.5821 572.498 49.5821 572.009C49.5821 571.521 49.7342 571.044 50.0173 570.646C50.3004 570.247 50.7005 569.947 51.1622 569.785C52.3549 569.181 53.6733 568.866 55.0106 568.866C56.348 568.866 57.6665 569.181 58.8591 569.785C59.3299 569.937 59.7404 570.234 60.0316 570.634C60.3228 571.033 60.4796 571.515 60.4796 572.009C60.4796 572.503 60.3228 572.985 60.0316 573.384C59.7404 573.784 59.3299 574.081 58.8591 574.233Z" fill="#FFA98C"/>
<path d="M170.201 456.488C170.201 458.938 168.484 459.918 166.428 458.693C165.305 457.966 164.37 456.984 163.698 455.829C163.026 454.673 162.636 453.375 162.561 452.04C162.561 449.59 164.296 448.611 166.428 449.835C167.531 450.575 168.447 451.561 169.102 452.716C169.757 453.871 170.133 455.162 170.201 456.488Z" fill="#2AF6FF"/>
<path d="M160.297 528.1C160.297 530.55 158.58 531.529 156.524 530.305C155.401 529.578 154.466 528.596 153.794 527.44C153.122 526.285 152.732 524.987 152.656 523.652C152.656 521.202 154.392 520.222 156.524 521.447C157.627 522.187 158.543 523.173 159.198 524.328C159.853 525.483 160.229 526.774 160.297 528.1Z" fill="#2AF6FF"/>
<path d="M163.447 594.661L162.485 593.04L181.445 581.884V543.477L165.409 501.528V457.091H167.296V501.358L183.331 543.308V582.939L163.447 594.661Z" fill="url(#paint26_linear_22_1839)"/>
<path d="M166.353 596.546C165.161 597.154 163.842 597.472 162.504 597.472C161.166 597.472 159.847 597.154 158.656 596.546C156.524 595.321 156.505 593.342 158.656 592.117C159.847 591.508 161.166 591.191 162.504 591.191C163.842 591.191 165.161 591.508 166.353 592.117C166.817 592.273 167.22 592.571 167.505 592.968C167.791 593.365 167.944 593.842 167.944 594.331C167.944 594.82 167.791 595.297 167.505 595.694C167.22 596.092 166.817 596.389 166.353 596.546Z" fill="#FFA98C"/>
<path d="M91.8354 605.855L90.8921 604.216L156.448 566.789V528.232H158.335V567.882L157.863 568.165L91.8354 605.855Z" fill="url(#paint27_linear_22_1839)"/>
<path d="M94.7406 607.721C93.5513 608.325 92.2359 608.64 90.9016 608.64C89.5673 608.64 88.2519 608.325 87.0625 607.721C84.9308 606.477 84.9119 604.499 87.0625 603.274C88.2552 602.669 89.5736 602.354 90.911 602.354C92.2483 602.354 93.5668 602.669 94.7595 603.274C96.8535 604.517 96.8724 606.496 94.7406 607.721Z" fill="#FFA98C"/>
<path d="M253.679 610.039C252.49 610.643 251.174 610.958 249.84 610.958C248.506 610.958 247.19 610.643 246.001 610.039C243.869 608.795 243.85 606.817 246.001 605.592C247.194 604.987 248.512 604.672 249.85 604.672C251.187 604.672 252.505 604.987 253.698 605.592C255.773 606.873 255.773 608.852 253.679 610.039Z" fill="#FFA98C"/>
<path d="M347.156 552.127C345.963 552.732 344.645 553.047 343.307 553.047C341.97 553.047 340.652 552.732 339.459 552.127C337.327 550.884 337.308 548.905 339.459 547.68C340.652 547.076 341.97 546.761 343.307 546.761C344.645 546.761 345.963 547.076 347.156 547.68C349.25 548.924 349.269 550.902 347.156 552.127Z" fill="#FFA98C"/>
<path d="M324.008 598.298C322.819 598.902 321.504 599.217 320.169 599.217C318.835 599.217 317.52 598.902 316.33 598.298C315.868 598.137 315.468 597.836 315.185 597.438C314.902 597.04 314.75 596.563 314.75 596.075C314.75 595.586 314.902 595.109 315.185 594.711C315.468 594.313 315.868 594.012 316.33 593.851C317.524 593.251 318.842 592.938 320.179 592.938C321.515 592.938 322.833 593.251 324.027 593.851C324.488 594.014 324.887 594.316 325.168 594.716C325.45 595.116 325.6 595.593 325.598 596.081C325.596 596.57 325.442 597.046 325.157 597.443C324.872 597.84 324.471 598.139 324.008 598.298Z" fill="#FFA98C"/>
<path d="M287.844 403.834C287.775 405.159 287.398 406.45 286.743 407.605C286.088 408.759 285.173 409.746 284.071 410.487C281.939 411.712 280.298 410.732 280.298 408.282C280.36 406.955 280.734 405.661 281.389 404.506C282.045 403.35 282.963 402.365 284.071 401.629C286.146 400.404 287.844 401.384 287.844 403.834Z" fill="#2AF6FF"/>
<path d="M307.369 540.632L293.22 532.302V470.056L283.09 450.74V406.058H284.976V450.269L295.107 469.585V531.228L307.369 538.446L370.058 499.926L371.039 501.547L307.369 540.632Z" fill="url(#paint28_linear_22_1839)"/>
<path d="M376.057 501.547C374.866 502.156 373.547 502.473 372.209 502.473C370.871 502.473 369.552 502.156 368.36 501.547C367.896 501.391 367.493 501.093 367.208 500.696C366.922 500.299 366.768 499.822 366.768 499.333C366.768 498.844 366.922 498.367 367.208 497.97C367.493 497.572 367.896 497.275 368.36 497.118C369.553 496.514 370.871 496.199 372.209 496.199C373.546 496.199 374.865 496.514 376.057 497.118C376.521 497.275 376.924 497.572 377.21 497.97C377.495 498.367 377.649 498.844 377.649 499.333C377.649 499.822 377.495 500.299 377.21 500.696C376.924 501.093 376.521 501.391 376.057 501.547Z" fill="#FFA98C"/>
<path d="M342.817 551.204L341.874 549.565L313.576 565.79L274.978 543.402V504.826H273.091V544.477L313.104 567.675L314.048 567.694L342.817 551.204Z" fill="url(#paint29_linear_22_1839)"/>
<path opacity="0.5" d="M369.933 209.109C384.543 192.602 382.99 167.389 366.465 152.795C349.941 138.201 324.701 139.752 310.092 156.259C295.482 172.766 297.035 197.979 313.56 212.573C330.084 227.167 355.324 225.616 369.933 209.109Z" fill="url(#paint30_radial_22_1839)"/>
<path d="M221.269 389.211H219.382V377.508L194.631 363.487V168.646L164.372 122.871L164.391 78.792H166.277L166.258 122.287L196.518 168.081V362.394L221.269 376.415V389.211Z" fill="url(#paint31_linear_22_1839)"/>
<path d="M248.925 368.462H247.039V359.001L224.419 345.829L200.555 360V190.657L200.744 190.412L252.415 120.553L253.924 121.665L202.442 191.279V356.683L224.419 343.643L248.925 357.927V368.462Z" fill="url(#paint32_linear_22_1839)"/>
<path d="M145.243 351.991H143.356V317.542L182.463 339.704V257.614L160.089 210.822L96.1555 181.668L96.0234 181.498L60.274 140.246L61.7078 139.002L97.3251 180.123L161.504 209.389L184.35 257.407V342.945L145.243 320.765V351.991Z" fill="url(#paint33_linear_22_1839)"/>
<path d="M166.919 262.156L152.864 231.947L73.3664 195.595L74.1399 193.88L154.279 230.515L168.616 261.365L166.919 262.156Z" fill="url(#paint34_linear_22_1839)"/>
<path d="M172.974 377.47H171.088V362.582L188.613 353.16V222.939L173.823 192.693L142.941 180.839L118.888 152.76L120.322 151.535L144.073 179.237L175.2 191.185L190.5 222.506V354.29L172.974 363.713V377.47Z" fill="url(#paint35_linear_22_1839)"/>
<path d="M184.199 184.212L167.202 149.593L156.769 145.372L117.096 98.8807L118.53 97.6558L157.901 143.808L168.579 148.123L185.897 183.383L184.199 184.212Z" fill="url(#paint36_linear_22_1839)"/>
<path d="M196.461 125.528C198.92 125.528 200.913 123.537 200.913 121.081C200.913 118.625 198.92 116.633 196.461 116.633C194.002 116.633 192.009 118.625 192.009 121.081C192.009 123.537 194.002 125.528 196.461 125.528Z" fill="#2AF6FF"/>
<path d="M286.184 272.295C282.21 272.295 278.326 271.118 275.022 268.912C271.718 266.707 269.142 263.572 267.622 259.905C266.101 256.238 265.703 252.202 266.478 248.309C267.254 244.416 269.167 240.84 271.977 238.033C274.787 235.226 278.367 233.314 282.264 232.54C286.162 231.766 290.201 232.163 293.872 233.682C297.544 235.201 300.681 237.774 302.889 241.074C305.097 244.375 306.275 248.255 306.275 252.224C306.27 257.546 304.152 262.648 300.385 266.411C296.618 270.174 291.511 272.29 286.184 272.295ZM286.184 234.039C282.583 234.039 279.063 235.105 276.07 237.104C273.076 239.102 270.743 241.942 269.365 245.265C267.987 248.588 267.626 252.245 268.329 255.772C269.031 259.3 270.765 262.54 273.311 265.084C275.857 267.627 279.101 269.359 282.632 270.061C286.164 270.762 289.824 270.402 293.15 269.026C296.477 267.649 299.32 265.319 301.321 262.328C303.321 259.337 304.389 255.821 304.389 252.224C304.384 247.403 302.464 242.78 299.051 239.371C295.638 235.961 291.01 234.044 286.184 234.039Z" fill="#FFA98C"/>
<path d="M105.079 261.402C101.105 261.402 97.2205 260.225 93.9165 258.02C90.6125 255.814 88.0373 252.68 86.5167 249.012C84.996 245.345 84.5981 241.31 85.3733 237.416C86.1486 233.523 88.0621 229.947 90.872 227.14C93.6818 224.333 97.2617 222.422 101.159 221.647C105.056 220.873 109.096 221.27 112.767 222.789C116.439 224.309 119.576 226.881 121.784 230.182C123.992 233.482 125.17 237.362 125.17 241.332C125.17 246.655 123.053 251.76 119.285 255.524C115.518 259.288 110.407 261.402 105.079 261.402ZM105.079 223.146C101.478 223.146 97.9584 224.213 94.9646 226.211C91.9709 228.209 89.6375 231.05 88.2596 234.373C86.8817 237.696 86.5212 241.352 87.2236 244.88C87.9261 248.407 89.6599 251.648 92.2059 254.191C94.7519 256.734 97.9957 258.466 101.527 259.168C105.058 259.87 108.719 259.51 112.045 258.133C115.372 256.757 118.215 254.426 120.215 251.435C122.216 248.445 123.283 244.929 123.283 241.332C123.291 238.938 122.826 236.566 121.914 234.352C121.003 232.138 119.664 230.126 117.973 228.429C116.282 226.733 114.272 225.387 112.06 224.467C109.847 223.548 107.475 223.073 105.079 223.071V223.146Z" fill="#FFA98C"/>
<path d="M49.7473 145.655C45.772 145.659 41.8849 144.484 38.578 142.28C35.2712 140.076 32.6931 136.942 31.1701 133.274C29.6471 129.606 29.2476 125.569 30.0222 121.674C30.7969 117.779 32.7108 114.201 35.5217 111.393C38.3327 108.585 41.9143 106.673 45.8134 105.899C49.7125 105.126 53.7538 105.525 57.4258 107.046C61.0978 108.567 64.2354 111.143 66.4416 114.446C68.6479 117.75 69.8235 121.633 69.8198 125.604C69.8148 130.92 67.6984 136.017 63.9352 139.777C60.1719 143.536 55.0693 145.65 49.7473 145.655ZM49.7473 107.418C46.1459 107.414 42.6243 108.478 39.6281 110.474C36.6318 112.47 34.2955 115.309 32.9148 118.631C31.534 121.954 31.1708 125.611 31.8711 129.14C32.5714 132.669 34.3038 135.911 36.849 138.456C39.3942 141.001 42.638 142.735 46.1699 143.438C49.7018 144.142 53.3632 143.783 56.6908 142.407C60.0184 141.031 62.8627 138.7 64.8639 135.709C66.8651 132.718 67.9333 129.201 67.9333 125.604C67.9283 120.785 66.0113 116.165 62.6023 112.757C59.1934 109.348 54.5707 107.428 49.7473 107.418Z" fill="#FFA98C"/>
<path d="M109.587 156.246C105.614 156.246 101.729 155.069 98.4253 152.863C95.1213 150.658 92.5461 147.524 91.0255 143.856C89.5048 140.189 89.1069 136.153 89.8822 132.26C90.6574 128.367 92.5709 124.791 95.3807 121.984C98.1905 119.177 101.77 117.266 105.668 116.491C109.565 115.717 113.605 116.114 117.276 117.633C120.947 119.152 124.085 121.725 126.293 125.025C128.5 128.326 129.679 132.206 129.679 136.176C129.674 141.497 127.555 146.599 123.789 150.362C120.022 154.125 114.914 156.241 109.587 156.246ZM109.587 117.99C105.987 117.99 102.467 119.057 99.4734 121.055C96.4796 123.053 94.1463 125.893 92.7684 129.216C91.3905 132.539 91.03 136.196 91.7324 139.723C92.4348 143.251 94.1687 146.492 96.7147 149.035C99.2607 151.578 102.504 153.31 106.036 154.012C109.567 154.714 113.228 154.353 116.554 152.977C119.881 151.601 122.724 149.27 124.724 146.279C126.725 143.288 127.792 139.772 127.792 136.176C127.787 131.354 125.868 126.731 122.455 123.322C119.042 119.913 114.414 117.995 109.587 117.99Z" fill="#FFA98C"/>
<path d="M54.8974 208.164C50.9238 208.164 47.0393 206.987 43.7353 204.782C40.4313 202.577 37.8562 199.442 36.3355 195.775C34.8148 192.107 34.417 188.072 35.1922 184.179C35.9674 180.285 37.8809 176.709 40.6908 173.902C43.5006 171.095 47.0805 169.184 50.9778 168.41C54.8752 167.635 58.9149 168.033 62.5861 169.552C66.2573 171.071 69.3951 173.643 71.6028 176.944C73.8105 180.244 74.9888 184.125 74.9888 188.094C74.9838 193.416 72.8655 198.518 69.0987 202.28C65.3319 206.043 60.2245 208.159 54.8974 208.164ZM54.8974 169.908C51.2969 169.908 47.7772 170.975 44.7834 172.973C41.7896 174.972 39.4563 177.812 38.0784 181.135C36.7005 184.458 36.34 188.114 37.0424 191.642C37.7449 195.17 39.4787 198.41 42.0247 200.953C44.5707 203.497 47.8145 205.229 51.3459 205.93C54.8773 206.632 58.5377 206.272 61.8641 204.895C65.1906 203.519 68.0338 201.188 70.0342 198.198C72.0346 195.207 73.1023 191.691 73.1023 188.094C73.0973 183.273 71.1777 178.65 67.7647 175.24C64.3517 171.831 59.7241 169.913 54.8974 169.908Z" fill="#FFA98C"/>
<path d="M105.418 102.612C101.449 102.594 97.5735 101.401 94.2819 99.1842C90.9903 96.9675 88.4298 93.8265 86.9236 90.1576C85.4174 86.4886 85.033 82.4562 85.8188 78.5692C86.6047 74.6822 88.5256 71.1148 91.3392 68.3174C94.1527 65.52 97.7328 63.6178 101.628 62.851C105.522 62.0842 109.557 62.4871 113.223 64.0089C116.889 65.5307 120.021 68.1031 122.224 71.4016C124.428 74.7 125.604 78.5766 125.604 82.5421C125.601 85.185 125.077 87.8015 124.061 90.2415C123.044 92.6816 121.556 94.8973 119.68 96.7617C117.805 98.6262 115.58 100.103 113.133 101.107C110.686 102.111 108.064 102.622 105.418 102.612ZM105.418 64.3565C101.818 64.3565 98.298 65.423 95.3042 67.4213C92.3104 69.4196 89.977 72.2598 88.5991 75.5828C87.2213 78.9058 86.8608 82.5623 87.5632 86.09C88.2656 89.6176 89.9995 92.858 92.5455 95.4013C95.0915 97.9446 98.3353 99.6766 101.867 100.378C105.398 101.08 109.058 100.72 112.385 99.3435C115.711 97.967 118.555 95.6361 120.555 92.6455C122.555 89.6549 123.623 86.1389 123.623 82.5421C123.618 77.7205 121.698 73.0978 118.286 69.6884C114.873 66.279 110.245 64.3615 105.418 64.3565Z" fill="#FFA98C"/>
<path d="M165.221 78.6032C161.247 78.6032 157.363 77.4261 154.059 75.2208C150.755 73.0155 148.179 69.8809 146.659 66.2136C145.138 62.5462 144.74 58.5108 145.515 54.6176C146.291 50.7243 148.204 47.1482 151.014 44.3413C153.824 41.5344 157.404 39.623 161.301 38.8485C165.198 38.0741 169.238 38.4716 172.909 39.9906C176.581 41.5097 179.718 44.0821 181.926 47.3827C184.134 50.6832 185.312 54.5636 185.312 58.5331C185.302 63.8529 183.182 68.9521 179.416 72.7138C175.651 76.4755 170.546 78.5933 165.221 78.6032ZM165.221 40.3474C161.62 40.3474 158.1 41.414 155.107 43.4123C152.113 45.4105 149.779 48.2507 148.402 51.5737C147.024 54.8967 146.663 58.5532 147.366 62.0809C148.068 65.6086 149.802 68.849 152.348 71.3923C154.894 73.9356 158.138 75.6676 161.669 76.3693C165.2 77.071 168.861 76.7108 172.187 75.3344C175.514 73.958 178.357 71.6271 180.357 68.6365C182.358 65.6459 183.425 62.1298 183.425 58.5331C183.42 53.7115 181.501 49.0888 178.088 45.6794C174.675 42.27 170.047 40.3524 165.221 40.3474Z" fill="#FFA98C"/>
<path d="M196.461 40.1403C192.488 40.1403 188.603 38.9632 185.299 36.7579C181.995 34.5526 179.42 31.418 177.899 27.7507C176.379 24.0834 175.981 20.0479 176.756 16.1547C177.531 12.2615 179.445 8.68528 182.255 5.87842C185.064 3.07155 188.644 1.16006 192.542 0.385651C196.439 -0.388761 200.479 0.00869934 204.15 1.52776C207.821 3.04683 210.959 5.61927 213.167 8.91979C215.374 12.2203 216.553 16.1007 216.553 20.0702C216.543 25.3901 214.423 30.4892 210.657 34.2509C206.891 38.0127 201.787 40.1304 196.461 40.1403ZM196.461 1.88453C192.861 1.88453 189.341 2.95111 186.347 4.94937C183.354 6.94763 181.02 9.78785 179.642 13.1108C178.264 16.4338 177.904 20.0904 178.606 23.618C179.309 27.1457 181.043 30.3861 183.589 32.9294C186.135 35.4727 189.378 37.2047 192.91 37.9064C196.441 38.6081 200.102 38.248 203.428 36.8715C206.755 35.4951 209.598 33.1642 211.598 30.1736C213.598 27.183 214.666 23.667 214.666 20.0702C214.661 15.2486 212.742 10.6259 209.329 7.2165C205.916 3.80711 201.288 1.88952 196.461 1.88453Z" fill="#FFA98C"/>
<path d="M246.435 65.6755C242.461 65.6755 238.577 64.4984 235.273 62.2931C231.969 60.0877 229.394 56.9532 227.873 53.2859C226.352 49.6185 225.954 45.5831 226.73 41.6898C227.505 37.7966 229.418 34.2204 232.228 31.4136C235.038 28.6067 238.618 26.6952 242.515 25.9208C246.413 25.1464 250.452 25.5438 254.124 27.0629C257.795 28.582 260.933 31.1544 263.14 34.4549C265.348 37.7555 266.526 41.6358 266.526 45.6053C266.516 50.9252 264.396 56.0243 260.631 59.7861C256.865 63.5478 251.76 65.6655 246.435 65.6755ZM246.435 27.4197C242.834 27.4197 239.315 28.4863 236.321 30.4845C233.327 32.4828 230.994 35.323 229.616 38.646C228.238 41.969 227.877 45.6255 228.58 49.1532C229.282 52.6808 231.016 55.9212 233.562 58.4645C236.108 61.0078 239.352 62.7398 242.883 63.4415C246.415 64.1432 250.075 63.7831 253.402 62.4067C256.728 61.0303 259.571 58.6993 261.572 55.7087C263.572 52.7181 264.64 49.2021 264.64 45.6053C264.635 40.7837 262.715 36.161 259.302 32.7516C255.889 29.3423 251.262 27.4247 246.435 27.4197Z" fill="#FFA98C"/>
<path d="M262.395 123.474C258.421 123.474 254.537 122.297 251.233 120.091C247.929 117.886 245.354 114.752 243.833 111.084C242.312 107.417 241.914 103.381 242.69 99.4882C243.465 95.595 245.378 92.0188 248.188 89.2119C250.998 86.4051 254.578 84.4936 258.475 83.7191C262.373 82.9447 266.412 83.3422 270.083 84.8613C273.755 86.3803 276.893 88.9528 279.1 92.2533C281.308 95.5538 282.486 99.4342 282.486 103.404C282.476 108.724 280.356 113.823 276.591 117.584C272.825 121.346 267.72 123.464 262.395 123.474ZM262.395 85.218C258.794 85.218 255.275 86.2846 252.281 88.2829C249.287 90.2811 246.954 93.1213 245.576 96.4443C244.198 99.7673 243.837 103.424 244.54 106.952C245.242 110.479 246.976 113.72 249.522 116.263C252.068 118.806 255.312 120.538 258.843 121.24C262.375 121.942 266.035 121.581 269.362 120.205C272.688 118.829 275.531 116.498 277.532 113.507C279.532 110.516 280.6 107 280.6 103.404C280.595 98.5821 278.675 93.9594 275.262 90.55C271.849 87.1406 267.222 85.223 262.395 85.218Z" fill="#FFA98C"/>
<path d="M307.35 80.6389C303.378 80.6352 299.495 79.4549 296.193 77.2473C292.892 75.0397 290.32 71.9039 288.802 68.2362C287.284 64.5685 286.889 60.5337 287.666 56.6417C288.444 52.7497 290.359 49.1753 293.169 46.3703C295.98 43.5653 299.56 41.6557 303.457 40.8828C307.353 40.1099 311.392 40.5085 315.062 42.0281C318.732 43.5477 321.869 46.1202 324.076 49.4203C326.283 52.7204 327.461 56.6 327.461 60.5687C327.451 65.8918 325.328 70.9938 321.558 74.7561C317.789 78.5184 312.679 80.6339 307.35 80.6389ZM307.35 42.3831C303.75 42.3831 300.23 43.4496 297.236 45.4479C294.243 47.4462 291.909 50.2864 290.531 53.6094C289.153 56.9324 288.793 60.5889 289.495 64.1166C290.198 67.6442 291.932 70.8846 294.478 73.4279C297.024 75.9712 300.267 77.7032 303.799 78.4049C307.33 79.1066 310.991 78.7465 314.317 77.37C317.644 75.9936 320.487 73.6627 322.487 70.6721C324.488 67.6815 325.555 64.1655 325.555 60.5687C325.55 55.7471 323.631 51.1244 320.218 47.715C316.805 44.3056 312.177 42.388 307.35 42.3831Z" fill="#FFA98C"/>
<path d="M329.989 132.105C326.016 132.101 322.133 130.921 318.832 128.714C315.53 126.506 312.958 123.37 311.44 119.702C309.922 116.035 309.527 112 310.305 108.108C311.082 104.216 312.997 100.642 315.807 97.8366C318.618 95.0316 322.198 93.122 326.095 92.3491C329.992 91.5762 334.03 91.9748 337.7 93.4944C341.37 95.014 344.507 97.5865 346.714 100.887C348.921 104.187 350.099 108.066 350.099 112.035C350.089 117.358 347.966 122.46 344.196 126.222C340.427 129.985 335.317 132.1 329.989 132.105ZM329.989 93.8494C326.388 93.8494 322.868 94.9159 319.875 96.9142C316.881 98.9125 314.547 101.753 313.17 105.076C311.792 108.399 311.431 112.055 312.134 115.583C312.836 119.111 314.57 122.351 317.116 124.894C319.662 127.438 322.906 129.17 326.437 129.871C329.968 130.573 333.629 130.213 336.955 128.836C340.282 127.46 343.125 125.129 345.125 122.138C347.126 119.148 348.193 115.632 348.193 112.035C348.188 107.213 346.269 102.591 342.856 99.1813C339.443 95.7719 334.815 93.8543 329.989 93.8494Z" fill="#FFA98C"/>
<path d="M339.817 202.982C335.844 202.982 331.959 201.805 328.655 199.6C325.351 197.394 322.776 194.26 321.255 190.593C319.735 186.925 319.337 182.89 320.112 178.996C320.887 175.103 322.801 171.527 325.61 168.72C328.42 165.913 332 164.002 335.898 163.227C339.795 162.453 343.835 162.85 347.506 164.37C351.177 165.889 354.315 168.461 356.523 171.762C358.73 175.062 359.909 178.942 359.909 182.912C359.904 188.233 357.785 193.335 354.018 197.098C350.252 200.861 345.144 202.977 339.817 202.982ZM339.817 164.726C336.217 164.726 332.697 165.793 329.703 167.791C326.709 169.789 324.376 172.63 322.998 175.953C321.62 179.276 321.26 182.932 321.962 186.46C322.665 189.987 324.399 193.228 326.945 195.771C329.491 198.314 332.734 200.046 336.266 200.748C339.797 201.45 343.458 201.09 346.784 199.713C350.111 198.337 352.954 196.006 354.954 193.015C356.954 190.025 358.022 186.509 358.022 182.912C358.025 180.521 357.556 178.154 356.642 175.944C355.729 173.734 354.388 171.726 352.698 170.034C351.007 168.342 349 166.999 346.79 166.082C344.58 165.164 342.21 164.691 339.817 164.689V164.726Z" fill="#FFA98C"/>
<path d="M224.042 391.114C222.848 391.714 221.53 392.026 220.194 392.026C218.857 392.026 217.539 391.714 216.345 391.114C215.883 390.953 215.483 390.652 215.2 390.253C214.917 389.855 214.765 389.379 214.765 388.89C214.765 388.401 214.917 387.925 215.2 387.527C215.483 387.128 215.883 386.827 216.345 386.666C217.538 386.062 218.856 385.747 220.194 385.747C221.531 385.747 222.849 386.062 224.042 386.666C224.504 386.827 224.904 387.128 225.187 387.527C225.47 387.925 225.622 388.401 225.622 388.89C225.622 389.379 225.47 389.855 225.187 390.253C224.904 390.652 224.504 390.953 224.042 391.114Z" fill="#2AF6FF"/>
<path d="M252 371.251C250.808 371.855 249.489 372.17 248.152 372.17C246.814 372.17 245.496 371.855 244.303 371.251C242.171 370.007 242.153 368.028 244.303 366.803C245.496 366.199 246.814 365.884 248.152 365.884C249.489 365.884 250.808 366.199 252 366.803C254.151 368.047 254.17 370.026 252 371.251Z" fill="#2AF6FF"/>
<path d="M206.347 339.289V251.357L206.535 251.112L256.264 185.248L256.452 185.154L318.745 154.267L325.121 130.465L326.951 130.955L320.349 155.586L257.509 186.737L208.233 251.979V335.935L229.136 323.327V337.518H227.249V326.663L206.347 339.289Z" fill="url(#paint37_linear_22_1839)"/>
<path d="M268.186 260.195L219.55 284.386L220.391 286.073L269.027 261.882L268.186 260.195Z" fill="url(#paint38_linear_22_1839)"/>
<path d="M231.89 339.836C230.699 340.445 229.38 340.762 228.041 340.762C226.703 340.762 225.384 340.445 224.193 339.836C223.729 339.68 223.326 339.382 223.04 338.985C222.755 338.588 222.601 338.111 222.601 337.622C222.601 337.133 222.755 336.656 223.04 336.259C223.326 335.862 223.729 335.564 224.193 335.407C225.384 334.799 226.703 334.481 228.041 334.481C229.38 334.481 230.699 334.799 231.89 335.407C232.354 335.564 232.757 335.862 233.043 336.259C233.328 336.656 233.482 337.133 233.482 337.622C233.482 338.111 233.328 338.588 233.043 338.985C232.757 339.382 232.354 339.68 231.89 339.836Z" fill="#2AF6FF"/>
<path d="M148.242 354.554C147.051 355.154 145.736 355.466 144.403 355.466C143.07 355.466 141.755 355.154 140.564 354.554C140.102 354.393 139.702 354.092 139.419 353.694C139.136 353.296 138.984 352.819 138.984 352.33C138.984 351.842 139.136 351.365 139.419 350.967C139.702 350.569 140.102 350.268 140.564 350.107C141.758 349.507 143.076 349.194 144.412 349.194C145.749 349.194 147.067 349.507 148.261 350.107C148.722 350.27 149.121 350.572 149.402 350.972C149.684 351.371 149.834 351.849 149.832 352.337C149.83 352.826 149.675 353.302 149.391 353.699C149.106 354.096 148.704 354.395 148.242 354.554Z" fill="#2AF6FF"/>
<path d="M175.936 380.391C174.743 380.995 173.425 381.31 172.088 381.31C170.75 381.31 169.432 380.995 168.239 380.391C167.777 380.23 167.377 379.929 167.094 379.531C166.811 379.132 166.659 378.656 166.659 378.167C166.659 377.679 166.811 377.202 167.094 376.804C167.377 376.405 167.777 376.105 168.239 375.944C169.432 375.339 170.75 375.024 172.088 375.024C173.425 375.024 174.743 375.339 175.936 375.944C178.049 377.187 178.068 379.185 175.936 380.391Z" fill="#2AF6FF"/>
<path d="M171.861 401.008H169.975V391.905L189.085 380.749V367.293H190.972V381.823L171.861 392.98V401.008Z" fill="#2AF6FF"/>
<path d="M174.823 403.947C173.632 404.556 172.313 404.873 170.975 404.873C169.636 404.873 168.317 404.556 167.126 403.947C164.994 402.722 164.975 400.744 167.126 399.519C168.314 398.91 169.63 398.593 170.965 398.593C172.3 398.593 173.616 398.91 174.804 399.519C176.917 400.744 176.936 402.741 174.823 403.947Z" fill="#2AF6FF"/>
<path d="M193.896 373.38C193.896 375.811 192.16 376.81 190.028 375.566C188.921 374.831 188.002 373.846 187.347 372.69C186.691 371.535 186.317 370.241 186.255 368.914C186.255 366.483 187.972 365.503 190.028 366.728C191.151 367.455 192.087 368.436 192.759 369.592C193.43 370.748 193.82 372.046 193.896 373.38Z" fill="#2AF6FF"/>
<path d="M251.925 393.677H250.038V385.649L220.382 368.632V354.102H222.269V367.539L251.925 384.556V393.677Z" fill="#2AF6FF"/>
<path d="M247.076 396.598C248.269 397.202 249.588 397.517 250.925 397.517C252.262 397.517 253.581 397.202 254.773 396.598C255.235 396.436 255.635 396.136 255.918 395.737C256.201 395.339 256.353 394.862 256.353 394.374C256.353 393.885 256.201 393.409 255.918 393.01C255.635 392.612 255.235 392.311 254.773 392.15C253.581 391.546 252.262 391.231 250.925 391.231C249.588 391.231 248.269 391.546 247.076 392.15C246.606 392.302 246.195 392.599 245.904 392.999C245.613 393.398 245.456 393.88 245.456 394.374C245.456 394.868 245.613 395.35 245.904 395.749C246.195 396.149 246.606 396.446 247.076 396.598Z" fill="#2AF6FF"/>
<path d="M217.477 360.17C217.477 362.62 219.194 363.6 221.25 362.375C222.373 361.648 223.308 360.667 223.98 359.511C224.652 358.355 225.042 357.057 225.117 355.722C225.117 353.273 223.382 352.293 221.25 353.518C220.147 354.257 219.231 355.243 218.576 356.398C217.921 357.553 217.545 358.844 217.477 360.17Z" fill="#2AF6FF"/>
<path d="M134.772 391.566H132.886V377.074L167.258 357.249V346.884H169.145V358.342L134.772 378.149V391.566Z" fill="#2AF6FF"/>
<path d="M137.734 394.506C136.543 395.115 135.224 395.432 133.886 395.432C132.548 395.432 131.229 395.115 130.037 394.506C127.905 393.281 127.887 391.302 130.037 390.077C131.225 389.469 132.541 389.151 133.876 389.151C135.211 389.151 136.527 389.469 137.715 390.077C139.828 391.302 139.847 393.319 137.734 394.506Z" fill="#2AF6FF"/>
<path d="M172.05 346.865C172.05 349.296 170.333 350.276 168.277 349.051C167.154 348.324 166.219 347.343 165.547 346.187C164.875 345.031 164.485 343.733 164.409 342.399C164.409 339.968 166.145 338.969 168.277 340.213C169.384 340.948 170.303 341.933 170.958 343.089C171.614 344.245 171.988 345.538 172.05 346.865Z" fill="#2AF6FF"/>
<path d="M172.088 318.975C172.088 321.406 170.352 322.386 168.22 321.161C167.115 320.423 166.198 319.437 165.543 318.282C164.887 317.127 164.512 315.834 164.447 314.508C164.447 312.077 166.183 311.078 168.22 312.322C169.343 313.049 170.278 314.03 170.95 315.186C171.622 316.342 172.012 317.64 172.088 318.975Z" fill="#2AF6FF"/>
<path d="M172.088 264.794C172.088 267.244 170.352 268.224 168.22 266.999C167.115 266.262 166.198 265.276 165.543 264.121C164.887 262.965 164.512 261.673 164.447 260.347C164.447 257.916 166.183 256.917 168.22 258.161C169.342 258.885 170.276 259.863 170.948 261.015C171.62 262.168 172.011 263.463 172.088 264.794Z" fill="#2AF6FF"/>
<path d="M187.859 183.816C187.859 186.266 186.123 187.246 183.991 186.021C182.884 185.286 181.965 184.301 181.31 183.145C180.654 181.989 180.281 180.696 180.218 179.369C180.218 176.919 181.935 175.939 183.991 177.164C185.111 177.894 186.044 178.876 186.716 180.032C187.387 181.187 187.779 182.483 187.859 183.816Z" fill="#2AF6FF"/>
<path d="M222.665 265.303C222.603 266.63 222.229 267.924 221.574 269.079C220.918 270.235 219.999 271.22 218.892 271.955C216.76 273.18 215.025 272.2 215.025 269.751C215.105 268.417 215.496 267.121 216.168 265.966C216.839 264.81 217.772 263.828 218.892 263.098C220.948 261.873 222.665 262.853 222.665 265.303Z" fill="#2AF6FF"/>
<path d="M222.193 284.676C222.125 286.002 221.749 287.293 221.094 288.448C220.439 289.603 219.524 290.589 218.42 291.328C216.289 292.553 214.553 291.573 214.553 289.124C214.628 287.789 215.018 286.491 215.69 285.335C216.362 284.179 217.297 283.198 218.42 282.471C220.477 281.246 222.193 282.226 222.193 284.676Z" fill="#2AF6FF"/>
<path d="M221.992 201.971C223.507 199.383 223.524 196.578 222.031 195.706C220.538 194.834 218.1 196.225 216.585 198.813C215.071 201.401 215.054 204.205 216.547 205.077C218.04 205.949 220.478 204.558 221.992 201.971Z" fill="#2AF6FF"/>
<path d="M205.498 141.603C205.436 142.93 205.062 144.223 204.406 145.379C203.751 146.535 202.832 147.52 201.725 148.255C199.593 149.48 197.857 148.5 197.857 146.05C197.937 144.717 198.329 143.421 199 142.265C199.672 141.11 200.605 140.128 201.725 139.398C203.781 138.173 205.498 139.153 205.498 141.603Z" fill="#2AF6FF"/>
<path d="M219.345 201.625L217.836 200.494L245.114 163.916L245.303 163.822L284.637 143.846L302.37 79.3384L304.2 79.8472L286.222 145.146L285.863 145.334L246.36 165.405L219.345 201.625Z" fill="url(#paint39_linear_22_1839)"/>
<path d="M201.008 145.523L199.499 144.373L228.155 107.211L239.247 62.8867L241.096 63.339L229.89 108.04L229.777 108.209L201.008 145.523Z" fill="url(#paint40_linear_22_1839)"/>
<path d="M217.722 270.486L216.213 269.355L246.982 228.367L247.171 228.272L322.593 190.488L323.442 192.165L248.208 229.855L217.722 270.486Z" fill="url(#paint41_linear_22_1839)"/>
<path d="M169.635 315.582H167.749V286.58L157.656 265.963L122.699 250.34L123.472 248.606L159.052 264.512L169.635 286.146V315.582Z" fill="url(#paint42_linear_22_1839)"/>
<path d="M197.405 39.311H195.518V117.952H197.405V39.311Z" fill="url(#paint43_linear_22_1839)"/>
<path d="M288.353 244.592C286.92 244.54 285.507 244.943 284.316 245.742C283.608 246.249 283.006 246.889 282.543 247.626C282.058 248.374 281.736 249.215 281.6 250.095H291.391L290.994 251.98H281.373C281.373 252.187 281.373 252.375 281.373 252.564C281.373 253.299 281.373 253.732 281.373 253.883H290.617L290.202 255.768H281.675C281.783 256.708 282.098 257.613 282.597 258.417C283.096 259.222 283.767 259.907 284.561 260.422C285.644 261.071 286.884 261.41 288.146 261.402C289.669 261.492 291.169 260.993 292.334 260.008V262.948C291.091 263.514 289.738 263.797 288.372 263.777C286.527 263.936 284.68 263.501 283.101 262.534C281.522 261.567 280.295 260.121 279.6 258.406C279.262 257.55 278.997 256.668 278.808 255.768H276.619L277.015 253.883H278.525C278.525 253.469 278.525 253.035 278.525 252.583C278.525 252.131 278.525 252.187 278.525 251.98H276.638L277.034 250.095H278.713C278.909 248.698 279.429 247.365 280.231 246.204C281.034 245.042 282.097 244.084 283.335 243.405C284.897 242.557 286.651 242.122 288.429 242.143C290.005 242.086 291.564 242.485 292.919 243.292L292.353 245.968C291.227 245.047 289.808 244.559 288.353 244.592Z" fill="#FFA98C"/>
<path d="M338.214 169.569V172.434H341.062V169.569H343.307V172.603C343.861 172.684 344.401 172.843 344.911 173.075C345.856 173.448 346.66 174.107 347.212 174.959C347.74 175.787 348.021 176.748 348.024 177.729C348.029 178.622 347.78 179.498 347.307 180.255C346.762 181.076 345.997 181.729 345.099 182.139C346.248 182.445 347.271 183.104 348.024 184.024C348.709 184.942 349.067 186.063 349.042 187.208C349.049 188.161 348.836 189.103 348.42 189.96C348.058 190.694 347.536 191.338 346.892 191.844C346.189 192.33 345.402 192.681 344.571 192.881C344.155 192.983 343.733 193.058 343.307 193.107V196.085H341.062V193.22H338.214V196.085H335.95V193.22H333.12V172.434H335.893V169.569H338.214ZM335.95 181.253H340.496C341.39 181.292 342.285 181.21 343.156 181.008C343.8 180.865 344.37 180.494 344.762 179.965C345.153 179.435 345.34 178.782 345.288 178.125C345.309 177.463 345.139 176.809 344.798 176.241C344.476 175.707 343.963 175.317 343.364 175.148C342.314 174.897 341.235 174.796 340.157 174.846H335.95V181.253ZM335.95 190.959H341.195C341.825 190.971 342.455 190.939 343.081 190.864C343.645 190.763 344.187 190.565 344.685 190.28C345.139 189.991 345.509 189.588 345.76 189.112C346.041 188.564 346.183 187.956 346.175 187.34C346.187 186.616 345.976 185.906 345.571 185.305C345.16 184.725 344.571 184.295 343.892 184.08C342.889 183.819 341.853 183.705 340.817 183.741H335.95V190.959Z" fill="#FFA98C"/>
<path d="M328.253 109.83H332.781V111.959H328.706C328.883 112.35 328.973 112.774 328.97 113.203C328.958 114.113 328.759 115.011 328.385 115.842C327.928 116.893 327.289 117.856 326.499 118.687C327.173 118.489 327.871 118.382 328.574 118.367C329.477 118.388 330.375 118.508 331.253 118.725C332.344 119.028 333.462 119.224 334.592 119.309C335.555 119.238 336.493 118.969 337.346 118.518L338.176 120.873C337.517 121.17 336.835 121.415 336.139 121.608C335.663 121.72 335.175 121.777 334.686 121.778C334.281 121.777 333.877 121.74 333.479 121.665C333.215 121.665 332.592 121.439 331.592 121.137C330.592 120.836 329.989 120.666 329.706 120.609C329.263 120.534 328.815 120.496 328.366 120.496C327.616 120.503 326.872 120.624 326.159 120.854C325.409 121.078 324.692 121.401 324.027 121.815L323.046 119.347C323.985 118.817 324.786 118.074 325.386 117.18C326.051 116.155 326.386 114.951 326.348 113.731C326.339 113.133 326.257 112.538 326.102 111.959H323.291V109.83H325.499C325.252 109.064 325.05 108.283 324.895 107.493C324.805 107.015 324.761 106.529 324.763 106.042C324.724 105.145 324.905 104.253 325.29 103.442C325.675 102.631 326.251 101.925 326.97 101.387C328.217 100.48 329.729 100.01 331.271 100.049C332.826 99.9923 334.347 100.501 335.554 101.481C336.723 102.513 337.464 103.945 337.629 105.496L335.063 105.872C334.976 104.843 334.521 103.88 333.78 103.159C333.066 102.515 332.139 102.159 331.177 102.159C330.215 102.159 329.288 102.515 328.574 103.159C328.236 103.478 327.967 103.864 327.785 104.292C327.603 104.72 327.512 105.181 327.517 105.646C327.564 107.069 327.811 108.477 328.253 109.83Z" fill="#FFA98C"/>
<path d="M261.584 116.652V114.089C260.498 113.98 259.439 113.687 258.452 113.222C257.583 112.746 256.855 112.051 256.339 111.205C255.724 110.176 255.374 109.011 255.32 107.813L257.924 107.323C258.012 108.414 258.375 109.464 258.98 110.376C259.286 110.796 259.675 111.148 260.122 111.411C260.57 111.674 261.068 111.841 261.584 111.903V103.686C260.441 103.461 259.345 103.047 258.339 102.461C257.543 102.026 256.888 101.372 256.452 100.577C255.852 99.3978 255.653 98.0557 255.884 96.7534C256.116 95.4511 256.765 94.2595 257.735 93.3591C258.844 92.495 260.197 92.0006 261.603 91.9457V90.7207H263.131V91.9457C264.426 92.0118 265.67 92.4721 266.696 93.2648C267.827 94.2194 268.555 95.5657 268.734 97.0339L266.074 97.4485C265.99 96.5919 265.655 95.779 265.111 95.1116C264.586 94.5515 263.889 94.1806 263.131 94.0563V101.481C264.01 101.673 264.874 101.932 265.715 102.254C266.418 102.561 267.058 102.996 267.602 103.535C268.126 104.07 268.525 104.713 268.771 105.42C269.046 106.142 269.187 106.909 269.186 107.681C269.209 108.504 269.068 109.324 268.771 110.092C268.474 110.86 268.027 111.561 267.457 112.155C266.887 112.75 266.204 113.225 265.448 113.554C264.693 113.882 263.879 114.058 263.055 114.07V116.671L261.584 116.652ZM261.584 94.0375C260.678 94.1416 259.84 94.57 259.226 95.2436C258.69 95.8657 258.385 96.6524 258.361 97.4722C258.337 98.292 258.596 99.0953 259.094 99.7476C259.766 100.457 260.632 100.955 261.584 101.18V94.0375ZM263.112 111.865C264.074 111.754 264.961 111.29 265.602 110.565C266.264 109.796 266.614 108.808 266.583 107.795C266.628 106.982 266.38 106.18 265.885 105.533C265.116 104.783 264.157 104.256 263.112 104.007V111.865Z" fill="#FFA98C"/>
<path d="M243.926 55.9892V51.3344H237.983V49.4499H243.926V47.3958H237.983V45.2663H242.87L237.04 35.0898H239.908L244.077 42.4772C244.48 43.1925 244.845 43.9285 245.171 44.6821C245.379 44.1732 245.775 43.4006 246.341 42.3453L250.265 35.0898H253.34L247.529 45.2663H252.434V47.3958H246.51V49.4499H252.434V51.3344H246.51V55.9892H243.926Z" fill="#FFA98C"/>
<path d="M51.181 117.613C49.7476 117.56 48.3343 117.963 47.1439 118.762C46.44 119.274 45.8385 119.913 45.3706 120.647C44.8854 121.394 44.5639 122.235 44.4273 123.116H54.2183L53.8222 125H44.201C44.201 125.207 44.201 125.396 44.201 125.584C44.201 126.319 44.201 126.753 44.201 126.904H53.4449L53.0487 128.788H44.4839C44.5956 129.73 44.9139 130.635 45.4161 131.44C45.9183 132.244 46.592 132.928 47.3892 133.443C48.4637 134.094 49.6982 134.433 50.9547 134.423C52.4781 134.512 53.9777 134.013 55.1427 133.028V135.968C53.9013 136.538 52.5472 136.822 51.181 136.797C49.3355 136.96 47.4866 136.524 45.9095 135.553C44.3323 134.582 43.1111 133.128 42.4276 131.408C42.0702 130.565 41.8045 129.687 41.6353 128.788H39.4281L39.8431 126.904H41.3523C41.3523 126.489 41.3523 126.055 41.3523 125.584C41.3523 125.113 41.3523 125.207 41.3523 125H39.4658L39.8808 123.116H41.541C41.7375 121.716 42.2597 120.382 43.0656 119.22C43.8715 118.058 44.9388 117.101 46.1818 116.426C47.7361 115.575 49.4843 115.14 51.2565 115.163C52.833 115.104 54.3927 115.503 55.7464 116.312L55.1805 118.989C54.0588 118.06 52.6372 117.571 51.181 117.613Z" fill="#FFA98C"/>
<path d="M195.197 6.40723V9.2717H198.046V6.40723H200.31V9.44131C200.861 9.5338 201.4 9.69197 201.913 9.91244C202.849 10.2928 203.646 10.9505 204.196 11.797C204.728 12.6239 205.016 13.5841 205.026 14.5672C205.027 15.4678 204.772 16.3501 204.29 17.1113C203.745 17.9331 202.981 18.586 202.083 18.9958C203.243 19.2882 204.276 19.9497 205.026 20.8804C205.711 21.7991 206.07 22.9199 206.045 24.0652C206.051 25.0119 205.838 25.9472 205.422 26.7978C205.065 27.5406 204.535 28.1869 203.875 28.6823C203.183 29.1779 202.401 29.5361 201.574 29.7376C201.157 29.8378 200.735 29.9133 200.31 29.9638V32.9413H198.046V30.0768H195.197V32.9413H192.952V30.0768H190.16V9.2717H192.952V6.40723H195.197ZM192.952 18.1101H197.499C198.386 18.1396 199.273 18.0573 200.14 17.8651C200.781 17.7151 201.349 17.3435 201.743 16.8159C202.136 16.2882 202.33 15.6386 202.291 14.9818C202.312 14.3171 202.134 13.6611 201.781 13.0973C201.448 12.575 200.94 12.1878 200.347 12.0043C199.302 11.7724 198.23 11.6773 197.159 11.7216H192.952V18.1101ZM192.952 27.7966H198.178C198.808 27.817 199.439 27.7855 200.065 27.7023C200.63 27.6154 201.174 27.4237 201.668 27.137C202.113 26.842 202.476 26.4402 202.725 25.9686C203.006 25.4208 203.148 24.8126 203.14 24.1971C203.163 23.4656 202.951 22.7458 202.536 22.143C202.131 21.5691 201.547 21.1451 200.876 20.9369C199.876 20.6585 198.838 20.5377 197.801 20.5788H192.952V27.7966Z" fill="#FFA98C"/>
<path d="M103.909 81.2418H108.437V83.3525H104.362C104.53 83.7525 104.62 84.1812 104.626 84.6151C104.612 85.5251 104.413 86.4227 104.041 87.2534C103.579 88.2966 102.941 89.2527 102.155 90.0802C102.823 89.888 103.515 89.7866 104.211 89.7787C105.121 89.7903 106.027 89.9105 106.909 90.1368C108 90.4399 109.118 90.6355 110.248 90.721C111.213 90.6512 112.153 90.3748 113.002 89.9106L113.832 92.2851C113.168 92.5853 112.48 92.8311 111.776 93.0201C111.306 93.1321 110.825 93.1891 110.342 93.1897C109.931 93.1886 109.52 93.1507 109.116 93.0766C108.871 93.0766 108.248 92.8505 107.229 92.5489C106.211 92.2474 105.607 92.059 105.343 92.0024C104.9 91.9274 104.452 91.8896 104.003 91.8894C103.254 91.9039 102.511 92.0245 101.796 92.2474C101.045 92.4777 100.328 92.8072 99.6644 93.2274L98.6834 90.7398C99.6261 90.2156 100.429 89.4722 101.023 88.5726C101.673 87.5423 102.002 86.3416 101.966 85.124C101.964 84.5264 101.888 83.9314 101.74 83.3525H98.9286V81.2418H101.079C100.832 80.4692 100.63 79.6826 100.476 78.8862C100.386 78.414 100.342 77.9345 100.344 77.4539C100.303 76.5571 100.484 75.664 100.868 74.8526C101.253 74.0413 101.831 73.3363 102.551 72.7992C103.798 71.8918 105.31 71.4214 106.852 71.4611C108.407 71.3989 109.93 71.9085 111.134 72.8934C112.303 73.9184 113.043 75.3442 113.21 76.8886L110.644 77.2843C110.557 76.2551 110.101 75.2918 109.361 74.5706C108.659 73.9024 107.727 73.5296 106.758 73.5296C105.788 73.5296 104.856 73.9024 104.154 74.5706C103.813 74.8836 103.542 75.2656 103.36 75.6913C103.178 76.117 103.088 76.5765 103.098 77.0393C103.158 78.4726 103.431 79.889 103.909 81.2418Z" fill="#FFA98C"/>
<path d="M54.3504 201.813V199.213C53.2592 199.101 52.1943 198.808 51.1999 198.346C50.3326 197.875 49.609 197.178 49.1059 196.329C48.4889 195.301 48.1387 194.135 48.0872 192.937L50.6906 192.447C50.7784 193.538 51.1419 194.588 51.747 195.5C52.0524 195.92 52.4413 196.272 52.8892 196.535C53.3372 196.798 53.8347 196.965 54.3504 197.027V188.81C53.2072 188.588 52.11 188.174 51.1056 187.585C50.3057 187.155 49.6497 186.5 49.2191 185.701C48.6063 184.525 48.3997 183.179 48.6318 181.874C48.8638 180.569 49.5213 179.376 50.5019 178.483C51.6098 177.617 52.9633 177.122 54.3692 177.07V175.845H55.803V177.07C57.0969 177.143 58.3391 177.602 59.3685 178.389C60.5416 179.357 61.2924 180.742 61.4625 182.252L58.8026 182.648C58.7191 181.791 58.3844 180.978 57.8404 180.311C57.3369 179.772 56.6774 179.403 55.9539 179.256V186.681C56.8305 186.885 57.6937 187.143 58.5385 187.453C59.2412 187.76 59.8808 188.195 60.425 188.735C60.9423 189.275 61.3407 189.917 61.5946 190.619C61.8635 191.343 61.9978 192.109 61.9908 192.881C62.0165 193.7 61.8797 194.517 61.5883 195.283C61.2969 196.05 60.8567 196.751 60.2929 197.347C59.7212 197.941 59.0358 198.414 58.2774 198.737C57.519 199.061 56.7032 199.229 55.8785 199.232V201.851L54.3504 201.813ZM54.3504 179.199C53.4661 179.313 52.6473 179.725 52.03 180.368C51.462 181.005 51.1526 181.832 51.1622 182.686C51.1368 183.488 51.4051 184.272 51.9168 184.89C52.5964 185.587 53.4599 186.077 54.407 186.304L54.3504 179.199ZM55.8785 197.027C56.8452 196.93 57.7371 196.464 58.3686 195.726C59.0232 194.954 59.3722 193.968 59.3497 192.956C59.3913 192.144 59.1441 191.343 58.6517 190.695C57.8765 189.953 56.9204 189.427 55.8785 189.168V197.027Z" fill="#FFA98C"/>
<path d="M296.654 70.2174V68.1255L306.351 57.0069C305.256 57.0069 304.275 57.0069 303.445 57.0069H297.276V54.915H309.727V56.6111L301.483 66.2787L299.899 68.0313C301.05 68.0313 302.144 67.8994 303.144 67.8994H310.199V70.1231L296.654 70.2174Z" fill="#FFA98C"/>
<path d="M312.67 62.0007L310.784 63.5648V61.3034L312.67 59.7393V49.2236H315.236V57.5532L317.123 55.9137V58.1563L315.236 59.7958V70.2172H312.67V62.0007Z" fill="#FFA98C"/>
<path d="M163.334 59.9276V61.9818H171.767V63.8663H163.334V69.1806H160.561V63.8851H159.127V62.0006H160.561V59.9465H159.127V57.5343H160.561V48.2624H167.107C168.557 48.2002 170.006 48.3915 171.39 48.8278C172.369 49.2082 173.189 49.9135 173.71 50.8254C174.295 51.7775 174.602 52.8741 174.597 53.9914C174.627 54.9969 174.407 55.9942 173.955 56.8936C173.55 57.6551 172.959 58.303 172.239 58.7781C171.49 59.2474 170.657 59.5673 169.786 59.7203C168.842 59.9104 167.881 60.0051 166.919 60.003L163.334 59.9276ZM166.956 57.5154C167.588 57.5179 168.219 57.4675 168.843 57.3647C169.388 57.2803 169.913 57.0949 170.39 56.8182C170.826 56.5521 171.185 56.1749 171.427 55.7252C171.712 55.1862 171.849 54.5815 171.823 53.9725C171.846 53.4286 171.722 52.8885 171.465 52.4084C171.244 51.9777 170.912 51.6135 170.503 51.3531C170.073 51.0661 169.593 50.8616 169.088 50.75C168.506 50.6174 167.911 50.5541 167.315 50.5616H163.334V57.5154H166.956Z" fill="#FFA98C"/>
<path d="M117.945 140.548H105.664C105.497 141.219 105.487 141.92 105.634 142.597C105.781 143.273 106.082 143.907 106.512 144.449C107.387 145.267 108.54 145.723 109.738 145.723C110.937 145.723 112.09 145.267 112.964 144.449C113.645 143.723 114.074 142.798 114.191 141.81L116.794 142.3C116.754 143.103 116.543 143.888 116.176 144.603C115.808 145.318 115.292 145.946 114.662 146.446C113.259 147.484 111.539 148.003 109.795 147.916C108.797 147.916 107.806 147.738 106.871 147.388C106.011 147.099 105.23 146.615 104.588 145.975C104.019 145.382 103.575 144.681 103.28 143.915C102.985 143.148 102.846 142.33 102.872 141.509C102.844 141.189 102.844 140.867 102.872 140.548H101.966V138.135H103.852C104.489 137.236 105.374 136.542 106.399 136.138C106.645 136.044 107.626 135.742 109.361 135.271H102.023V132.859H113.474C113.654 132.403 113.744 131.917 113.738 131.427C113.753 130.581 113.45 129.76 112.889 129.127C112.488 128.722 112.004 128.409 111.47 128.21C110.935 128.011 110.363 127.932 109.795 127.978C109.282 127.935 108.766 128.006 108.283 128.185C107.801 128.365 107.364 128.648 107.003 129.014C106.459 129.682 106.124 130.495 106.041 131.351L103.362 130.937C103.551 129.472 104.277 128.129 105.399 127.167C106.579 126.243 108.052 125.775 109.55 125.848C111.275 125.721 112.988 126.216 114.379 127.243C115.005 127.801 115.5 128.491 115.826 129.264C116.152 130.036 116.302 130.872 116.266 131.709C116.267 132.12 116.229 132.53 116.153 132.934H117.869V135.346H114.983C114.617 135.761 114.183 136.112 113.7 136.383C112.168 137.074 110.569 137.605 108.927 137.966C108.664 138.031 108.406 138.112 108.154 138.211H117.869L117.945 140.548Z" fill="#FFA98C"/>
<path d="M95.9857 251.98V230.911H98.5703V242.896L104.683 236.696H108.022L102.192 242.35L108.625 251.98H105.418L100.381 244.197L98.4948 245.949V251.98H95.9857Z" fill="#FFA98C"/>
<path d="M110.625 251.979V236.752H112.945V239.07C113.339 238.244 113.905 237.512 114.606 236.922C115.086 236.585 115.66 236.408 116.247 236.413C117.193 236.44 118.113 236.727 118.907 237.242L118.02 239.636C117.453 239.284 116.802 239.089 116.134 239.07C115.582 239.066 115.044 239.245 114.606 239.579C114.142 239.935 113.805 240.431 113.643 240.993C113.349 241.97 113.203 242.987 113.21 244.008V251.979H110.625Z" fill="#FFA98C"/>
</g>
<defs>
<linearGradient id="paint0_linear_22_1839" x1="313.614" y1="421.116" x2="227.166" y2="443.472" gradientUnits="userSpaceOnUse">
<stop offset="0.02" stop-color="#FFA98C"/>
<stop offset="0.07" stop-color="#C46AA7"/>
<stop offset="0.13" stop-color="#9033C0"/>
<stop offset="0.16" stop-color="#7C1DC9"/>
<stop offset="0.32" stop-color="#6E41D2"/>
<stop offset="0.67" stop-color="#4C9BE8"/>
<stop offset="1" stop-color="#2AF6FF"/>
</linearGradient>
<linearGradient id="paint1_linear_22_1839" x1="300.408" y1="456.921" x2="213.961" y2="479.278" gradientUnits="userSpaceOnUse">
<stop offset="0.02" stop-color="#FFA98C"/>
<stop offset="0.07" stop-color="#C46AA7"/>
<stop offset="0.13" stop-color="#9033C0"/>
<stop offset="0.16" stop-color="#7C1DC9"/>
<stop offset="0.32" stop-color="#6E41D2"/>
<stop offset="0.67" stop-color="#4C9BE8"/>
<stop offset="1" stop-color="#2AF6FF"/>
</linearGradient>
<linearGradient id="paint2_linear_22_1839" x1="106.965" y1="409.997" x2="155.982" y2="443.024" gradientUnits="userSpaceOnUse">
<stop offset="0.02" stop-color="#FFA98C"/>
<stop offset="0.07" stop-color="#C46AA7"/>
<stop offset="0.13" stop-color="#9033C0"/>
<stop offset="0.16" stop-color="#7C1DC9"/>
<stop offset="0.32" stop-color="#6E41D2"/>
<stop offset="0.67" stop-color="#4C9BE8"/>
<stop offset="1" stop-color="#2AF6FF"/>
</linearGradient>
<linearGradient id="paint3_linear_22_1839" x1="107.21" y1="445.332" x2="156.227" y2="478.359" gradientUnits="userSpaceOnUse">
<stop offset="0.02" stop-color="#FFA98C"/>
<stop offset="0.07" stop-color="#C46AA7"/>
<stop offset="0.13" stop-color="#9033C0"/>
<stop offset="0.16" stop-color="#7C1DC9"/>
<stop offset="0.32" stop-color="#6E41D2"/>
<stop offset="0.67" stop-color="#4C9BE8"/>
<stop offset="1" stop-color="#2AF6FF"/>
</linearGradient>
<linearGradient id="paint4_linear_22_1839" x1="231.833" y1="555.124" x2="463.909" y2="485.564" gradientUnits="userSpaceOnUse">
<stop stop-color="#25054D"/>
<stop offset="1" stop-color="#45108A"/>
</linearGradient>
<linearGradient id="paint5_linear_22_1839" x1="-7.90449" y1="583.241" x2="297.34" y2="514.733" gradientUnits="userSpaceOnUse">
<stop stop-color="#25054D"/>
<stop offset="1" stop-color="#45108A"/>
</linearGradient>
<linearGradient id="paint6_linear_22_1839" x1="291.126" y1="327.681" x2="170.25" y2="558.263" gradientUnits="userSpaceOnUse">
<stop offset="0.74" stop-color="#45108A"/>
<stop offset="1" stop-color="#3746A3"/>
</linearGradient>
<linearGradient id="paint7_linear_22_1839" x1="878.341" y1="713.782" x2="1095.1" y2="648.81" gradientUnits="userSpaceOnUse">
<stop offset="0.03" stop-color="#7C1DC9"/>
<stop offset="0.21" stop-color="#6E41D2"/>
<stop offset="0.62" stop-color="#4C9BE8"/>
<stop offset="1" stop-color="#2AF6FF"/>
</linearGradient>
<linearGradient id="paint8_linear_22_1839" x1="706.461" y1="724.636" x2="991.559" y2="660.66" gradientUnits="userSpaceOnUse">
<stop offset="0.04" stop-color="#138BBD"/>
<stop offset="0.23" stop-color="#169AC7"/>
<stop offset="0.59" stop-color="#1FC3DF"/>
<stop offset="1" stop-color="#2AF6FF"/>
</linearGradient>
<linearGradient id="paint9_linear_22_1839" x1="231.437" y1="525.33" x2="468.644" y2="454.221" gradientUnits="userSpaceOnUse">
<stop stop-color="#25054D"/>
<stop offset="1" stop-color="#45108A"/>
</linearGradient>
<linearGradient id="paint10_linear_22_1839" x1="-11.2248" y1="554.05" x2="300.81" y2="484.031" gradientUnits="userSpaceOnUse">
<stop stop-color="#25054D"/>
<stop offset="1" stop-color="#45108A"/>
</linearGradient>
<linearGradient id="paint11_linear_22_1839" x1="291.126" y1="292.892" x2="170.25" y2="523.475" gradientUnits="userSpaceOnUse">
<stop offset="0.74" stop-color="#45108A"/>
<stop offset="1" stop-color="#3746A3"/>
</linearGradient>
<linearGradient id="paint12_linear_22_1839" x1="878.341" y1="713.782" x2="1095.1" y2="648.81" gradientUnits="userSpaceOnUse">
<stop offset="0.03" stop-color="#7C1DC9"/>
<stop offset="0.21" stop-color="#6E41D2"/>
<stop offset="0.62" stop-color="#4C9BE8"/>
<stop offset="1" stop-color="#2AF6FF"/>
</linearGradient>
<linearGradient id="paint13_linear_22_1839" x1="706.461" y1="724.637" x2="991.559" y2="660.661" gradientUnits="userSpaceOnUse">
<stop offset="0.04" stop-color="#138BBD"/>
<stop offset="0.23" stop-color="#169AC7"/>
<stop offset="0.59" stop-color="#1FC3DF"/>
<stop offset="1" stop-color="#2AF6FF"/>
</linearGradient>
<linearGradient id="paint14_linear_22_1839" x1="231.041" y1="485.924" x2="473.378" y2="413.286" gradientUnits="userSpaceOnUse">
<stop stop-color="#25054D"/>
<stop offset="1" stop-color="#45108A"/>
</linearGradient>
<linearGradient id="paint15_linear_22_1839" x1="-14.5639" y1="515.285" x2="304.281" y2="443.737" gradientUnits="userSpaceOnUse">
<stop stop-color="#25054D"/>
<stop offset="1" stop-color="#45108A"/>
</linearGradient>
<linearGradient id="paint16_linear_22_1839" x1="291.126" y1="248.512" x2="170.25" y2="479.113" gradientUnits="userSpaceOnUse">
<stop offset="0.74" stop-color="#45108A"/>
<stop offset="1" stop-color="#3746A3"/>
</linearGradient>
<linearGradient id="paint17_linear_22_1839" x1="878.341" y1="713.782" x2="1095.1" y2="648.81" gradientUnits="userSpaceOnUse">
<stop offset="0.03" stop-color="#7C1DC9"/>
<stop offset="0.21" stop-color="#6E41D2"/>
<stop offset="0.62" stop-color="#4C9BE8"/>
<stop offset="1" stop-color="#2AF6FF"/>
</linearGradient>
<linearGradient id="paint18_linear_22_1839" x1="706.461" y1="724.636" x2="991.559" y2="660.66" gradientUnits="userSpaceOnUse">
<stop offset="0.04" stop-color="#138BBD"/>
<stop offset="0.23" stop-color="#169AC7"/>
<stop offset="0.59" stop-color="#1FC3DF"/>
<stop offset="1" stop-color="#2AF6FF"/>
</linearGradient>
<linearGradient id="paint19_linear_22_1839" x1="230.588" y1="434.703" x2="479.074" y2="360.233" gradientUnits="userSpaceOnUse">
<stop stop-color="#25054D"/>
<stop offset="1" stop-color="#45108A"/>
</linearGradient>
<linearGradient id="paint20_linear_22_1839" x1="-18.5444" y1="464.817" x2="308.449" y2="391.438" gradientUnits="userSpaceOnUse">
<stop stop-color="#25054D"/>
<stop offset="1" stop-color="#45108A"/>
</linearGradient>
<linearGradient id="paint21_linear_22_1839" x1="243.285" y1="282.396" x2="149.397" y2="461.526" gradientUnits="userSpaceOnUse">
<stop offset="0.14" stop-color="#45108A"/>
<stop offset="1" stop-color="#3746A3"/>
</linearGradient>
<linearGradient id="paint22_linear_22_1839" x1="230.324" y1="609.059" x2="219.029" y2="434.739" gradientUnits="userSpaceOnUse">
<stop offset="0.02" stop-color="#FFA98C"/>
<stop offset="0.07" stop-color="#C46AA7"/>
<stop offset="0.13" stop-color="#9033C0"/>
<stop offset="0.16" stop-color="#7C1DC9"/>
<stop offset="0.32" stop-color="#6E41D2"/>
<stop offset="0.67" stop-color="#4C9BE8"/>
<stop offset="1" stop-color="#2AF6FF"/>
</linearGradient>
<linearGradient id="paint23_linear_22_1839" x1="288.485" y1="608.211" x2="235.061" y2="481.794" gradientUnits="userSpaceOnUse">
<stop offset="0.02" stop-color="#FFA98C"/>
<stop offset="0.07" stop-color="#C46AA7"/>
<stop offset="0.13" stop-color="#9033C0"/>
<stop offset="0.16" stop-color="#7C1DC9"/>
<stop offset="0.32" stop-color="#6E41D2"/>
<stop offset="0.67" stop-color="#4C9BE8"/>
<stop offset="1" stop-color="#2AF6FF"/>
</linearGradient>
<linearGradient id="paint24_linear_22_1839" x1="31.6368" y1="538.371" x2="136.866" y2="447.804" gradientUnits="userSpaceOnUse">
<stop offset="0.02" stop-color="#FFA98C"/>
<stop offset="0.07" stop-color="#C46AA7"/>
<stop offset="0.13" stop-color="#9033C0"/>
<stop offset="0.16" stop-color="#7C1DC9"/>
<stop offset="0.32" stop-color="#6E41D2"/>
<stop offset="0.67" stop-color="#4C9BE8"/>
<stop offset="1" stop-color="#2AF6FF"/>
</linearGradient>
<linearGradient id="paint25_linear_22_1839" x1="68.9897" y1="581.526" x2="153.295" y2="506.735" gradientUnits="userSpaceOnUse">
<stop offset="0.02" stop-color="#FFA98C"/>
<stop offset="0.07" stop-color="#C46AA7"/>
<stop offset="0.13" stop-color="#9033C0"/>
<stop offset="0.16" stop-color="#7C1DC9"/>
<stop offset="0.32" stop-color="#6E41D2"/>
<stop offset="0.67" stop-color="#4C9BE8"/>
<stop offset="1" stop-color="#2AF6FF"/>
</linearGradient>
<linearGradient id="paint26_linear_22_1839" x1="169.031" y1="595.057" x2="178.651" y2="459.445" gradientUnits="userSpaceOnUse">
<stop offset="0.02" stop-color="#FFA98C"/>
<stop offset="0.07" stop-color="#C46AA7"/>
<stop offset="0.13" stop-color="#9033C0"/>
<stop offset="0.16" stop-color="#7C1DC9"/>
<stop offset="0.32" stop-color="#6E41D2"/>
<stop offset="0.67" stop-color="#4C9BE8"/>
<stop offset="1" stop-color="#2AF6FF"/>
</linearGradient>
<linearGradient id="paint27_linear_22_1839" x1="103.268" y1="612.056" x2="166.386" y2="535.026" gradientUnits="userSpaceOnUse">
<stop offset="0.02" stop-color="#FFA98C"/>
<stop offset="0.07" stop-color="#C46AA7"/>
<stop offset="0.13" stop-color="#9033C0"/>
<stop offset="0.16" stop-color="#7C1DC9"/>
<stop offset="0.32" stop-color="#6E41D2"/>
<stop offset="0.67" stop-color="#4C9BE8"/>
<stop offset="1" stop-color="#2AF6FF"/>
</linearGradient>
<linearGradient id="paint28_linear_22_1839" x1="345.986" y1="525.405" x2="258.053" y2="438.323" gradientUnits="userSpaceOnUse">
<stop offset="0.02" stop-color="#FFA98C"/>
<stop offset="0.07" stop-color="#C46AA7"/>
<stop offset="0.13" stop-color="#9033C0"/>
<stop offset="0.16" stop-color="#7C1DC9"/>
<stop offset="0.32" stop-color="#6E41D2"/>
<stop offset="0.67" stop-color="#4C9BE8"/>
<stop offset="1" stop-color="#2AF6FF"/>
</linearGradient>
<linearGradient id="paint29_linear_22_1839" x1="324.122" y1="565.602" x2="270.419" y2="505.467" gradientUnits="userSpaceOnUse">
<stop offset="0.02" stop-color="#FFA98C"/>
<stop offset="0.07" stop-color="#C46AA7"/>
<stop offset="0.13" stop-color="#9033C0"/>
<stop offset="0.16" stop-color="#7C1DC9"/>
<stop offset="0.32" stop-color="#6E41D2"/>
<stop offset="0.67" stop-color="#4C9BE8"/>
<stop offset="1" stop-color="#2AF6FF"/>
</linearGradient>
<radialGradient id="paint30_radial_22_1839" cx="0" cy="0" r="1" gradientUnits="userSpaceOnUse" gradientTransform="translate(339.989 182.773) scale(39.9374 39.8953)">
<stop stop-color="#7C1DC9"/>
<stop offset="0.01" stop-color="#7A1DC7"/>
<stop offset="0.25" stop-color="#6317AC"/>
<stop offset="0.49" stop-color="#521399"/>
<stop offset="0.74" stop-color="#48118E"/>
<stop offset="1" stop-color="#45108A"/>
</radialGradient>
<linearGradient id="paint31_linear_22_1839" x1="162.183" y1="79.6966" x2="217.251" y2="387.365" gradientUnits="userSpaceOnUse">
<stop offset="0.02" stop-color="#FFA98C"/>
<stop offset="0.07" stop-color="#C46AA7"/>
<stop offset="0.13" stop-color="#9033C0"/>
<stop offset="0.16" stop-color="#7C1DC9"/>
<stop offset="0.32" stop-color="#6E41D2"/>
<stop offset="0.67" stop-color="#4C9BE8"/>
<stop offset="1" stop-color="#2AF6FF"/>
</linearGradient>
<linearGradient id="paint32_linear_22_1839" x1="229.588" y1="119.384" x2="222.058" y2="368.142" gradientUnits="userSpaceOnUse">
<stop offset="0.02" stop-color="#FFA98C"/>
<stop offset="0.07" stop-color="#C46AA7"/>
<stop offset="0.13" stop-color="#9033C0"/>
<stop offset="0.16" stop-color="#7C1DC9"/>
<stop offset="0.32" stop-color="#6E41D2"/>
<stop offset="0.67" stop-color="#4C9BE8"/>
<stop offset="1" stop-color="#2AF6FF"/>
</linearGradient>
<linearGradient id="paint33_linear_22_1839" x1="95.382" y1="128.091" x2="176.353" y2="341.099" gradientUnits="userSpaceOnUse">
<stop offset="0.02" stop-color="#FFA98C"/>
<stop offset="0.07" stop-color="#C46AA7"/>
<stop offset="0.13" stop-color="#9033C0"/>
<stop offset="0.16" stop-color="#7C1DC9"/>
<stop offset="0.32" stop-color="#6E41D2"/>
<stop offset="0.67" stop-color="#4C9BE8"/>
<stop offset="1" stop-color="#2AF6FF"/>
</linearGradient>
<linearGradient id="paint34_linear_22_1839" x1="79.1203" y1="188.094" x2="173.284" y2="255.975" gradientUnits="userSpaceOnUse">
<stop offset="0.02" stop-color="#FFA98C"/>
<stop offset="0.07" stop-color="#C46AA7"/>
<stop offset="0.13" stop-color="#9033C0"/>
<stop offset="0.16" stop-color="#7C1DC9"/>
<stop offset="0.32" stop-color="#6E41D2"/>
<stop offset="0.67" stop-color="#4C9BE8"/>
<stop offset="1" stop-color="#2AF6FF"/>
</linearGradient>
<linearGradient id="paint35_linear_22_1839" x1="145.299" y1="147.464" x2="197.074" y2="370.333" gradientUnits="userSpaceOnUse">
<stop offset="0.02" stop-color="#FFA98C"/>
<stop offset="0.07" stop-color="#C46AA7"/>
<stop offset="0.13" stop-color="#9033C0"/>
<stop offset="0.16" stop-color="#7C1DC9"/>
<stop offset="0.32" stop-color="#6E41D2"/>
<stop offset="0.67" stop-color="#4C9BE8"/>
<stop offset="1" stop-color="#2AF6FF"/>
</linearGradient>
<linearGradient id="paint36_linear_22_1839" x1="117.096" y1="140.924" x2="185.897" y2="140.924" gradientUnits="userSpaceOnUse">
<stop offset="0.02" stop-color="#FFA98C"/>
<stop offset="0.07" stop-color="#C46AA7"/>
<stop offset="0.13" stop-color="#9033C0"/>
<stop offset="0.16" stop-color="#7C1DC9"/>
<stop offset="0.32" stop-color="#6E41D2"/>
<stop offset="0.67" stop-color="#4C9BE8"/>
<stop offset="1" stop-color="#2AF6FF"/>
</linearGradient>
<linearGradient id="paint37_linear_22_1839" x1="303.294" y1="120.383" x2="205.364" y2="324.463" gradientUnits="userSpaceOnUse">
<stop offset="0.02" stop-color="#FFA98C"/>
<stop offset="0.07" stop-color="#C46AA7"/>
<stop offset="0.13" stop-color="#9033C0"/>
<stop offset="0.16" stop-color="#7C1DC9"/>
<stop offset="0.32" stop-color="#6E41D2"/>
<stop offset="0.67" stop-color="#4C9BE8"/>
<stop offset="1" stop-color="#2AF6FF"/>
</linearGradient>
<linearGradient id="paint38_linear_22_1839" x1="268.69" y1="261.031" x2="219.661" y2="285.571" gradientUnits="userSpaceOnUse">
<stop offset="0.02" stop-color="#FFA98C"/>
<stop offset="0.07" stop-color="#C46AA7"/>
<stop offset="0.13" stop-color="#9033C0"/>
<stop offset="0.16" stop-color="#7C1DC9"/>
<stop offset="0.32" stop-color="#6E41D2"/>
<stop offset="0.67" stop-color="#4C9BE8"/>
<stop offset="1" stop-color="#2AF6FF"/>
</linearGradient>
<linearGradient id="paint39_linear_22_1839" x1="311.689" y1="84.9166" x2="228.332" y2="207.963" gradientUnits="userSpaceOnUse">
<stop offset="0.02" stop-color="#FFA98C"/>
<stop offset="0.07" stop-color="#C46AA7"/>
<stop offset="0.13" stop-color="#9033C0"/>
<stop offset="0.16" stop-color="#7C1DC9"/>
<stop offset="0.32" stop-color="#6E41D2"/>
<stop offset="0.67" stop-color="#4C9BE8"/>
<stop offset="1" stop-color="#2AF6FF"/>
</linearGradient>
<linearGradient id="paint40_linear_22_1839" x1="244.435" y1="66.0904" x2="203.943" y2="145.746" gradientUnits="userSpaceOnUse">
<stop offset="0.02" stop-color="#FFA98C"/>
<stop offset="0.07" stop-color="#C46AA7"/>
<stop offset="0.13" stop-color="#9033C0"/>
<stop offset="0.16" stop-color="#7C1DC9"/>
<stop offset="0.32" stop-color="#6E41D2"/>
<stop offset="0.67" stop-color="#4C9BE8"/>
<stop offset="1" stop-color="#2AF6FF"/>
</linearGradient>
<linearGradient id="paint41_linear_22_1839" x1="319.443" y1="185.4" x2="213.556" y2="263.394" gradientUnits="userSpaceOnUse">
<stop offset="0.02" stop-color="#FFA98C"/>
<stop offset="0.07" stop-color="#C46AA7"/>
<stop offset="0.13" stop-color="#9033C0"/>
<stop offset="0.16" stop-color="#7C1DC9"/>
<stop offset="0.32" stop-color="#6E41D2"/>
<stop offset="0.67" stop-color="#4C9BE8"/>
<stop offset="1" stop-color="#2AF6FF"/>
</linearGradient>
<linearGradient id="paint42_linear_22_1839" x1="130.622" y1="242.783" x2="176.305" y2="308.787" gradientUnits="userSpaceOnUse">
<stop offset="0.02" stop-color="#FFA98C"/>
<stop offset="0.07" stop-color="#C46AA7"/>
<stop offset="0.13" stop-color="#9033C0"/>
<stop offset="0.16" stop-color="#7C1DC9"/>
<stop offset="0.32" stop-color="#6E41D2"/>
<stop offset="0.67" stop-color="#4C9BE8"/>
<stop offset="1" stop-color="#2AF6FF"/>
</linearGradient>
<linearGradient id="paint43_linear_22_1839" x1="196.461" y1="38.5949" x2="196.461" y2="121.212" gradientUnits="userSpaceOnUse">
<stop offset="0.02" stop-color="#FFA98C"/>
<stop offset="0.07" stop-color="#C46AA7"/>
<stop offset="0.13" stop-color="#9033C0"/>
<stop offset="0.16" stop-color="#7C1DC9"/>
<stop offset="0.32" stop-color="#6E41D2"/>
<stop offset="0.67" stop-color="#4C9BE8"/>
<stop offset="1" stop-color="#2AF6FF"/>
</linearGradient>
<clipPath id="clip0_22_1839">
<rect width="380" height="611" fill="white"/>
</clipPath>
</defs>
</svg>
